<svg xmlns="http://www.w3.org/2000/svg" width="44" height="43" viewBox="0 0 44 43">
  <defs>
    <linearGradient id="safari-pinned-tab-a" x1="44.839%" x2="50.568%" y1="36.583%" y2="64.707%">
      <stop offset="0%" stop-color="#0E003D"/>
      <stop offset="99.799%" stop-color="#392C72"/>
      <stop offset="100%" stop-color="#392C72"/>
    </linearGradient>
  </defs>
  <g fill="none" fill-rule="evenodd">
    <rect width="43" height="43"/>
    <g transform="translate(.172 5.934)">
      <path fill="url(#safari-pinned-tab-a)" d="M11.2325013,-0.16856 C12.504455,-0.16856 13.7764088,-0.16856 15.0483626,-0.16856 C15.0483626,9.0820128 15.0483626,18.3325856 15.0483626,27.5831584 C15.0483626,29.6906004 13.3399433,31.3990197 11.2325013,31.3990197 C9.12505929,31.3990197 7.41664,29.6906004 7.41664,27.5831584 L7.41664,3.64730128 C7.41664,1.53985929 9.12505929,-0.16856 11.2325013,-0.16856 Z" transform="rotate(-30 11.233 15.615)"/>
      <path fill="#5842C3" d="M35.5061386,5.7631495 C36.5598596,3.93805119 38.8936038,3.31272633 40.7187021,4.36644733 C42.5438004,5.42016833 43.1691252,7.75391247 42.1154042,9.57901078 L42.1154042,9.57901078 L31.795234,27.45407 C30.8038722,29.171159 28.679508,29.8262778 26.9116722,29.0203078 C26.1932714,28.7039262 25.565065,28.1650549 25.1426063,27.433335 C21.1388428,20.4986131 17.1350792,13.5638912 13.1313157,6.62916935 L16.4359485,4.72123871 L16.4359485,4.72123871 C18.2610468,3.66751771 20.5947909,4.29284257 21.6485119,6.11794088 L28.4743157,17.9405817 Z"/>
    </g>
  </g>
</svg>
