<svg width="274" height="145" viewBox="0 0 274 145" fill="none" xmlns="http://www.w3.org/2000/svg">
<path d="M178.503 135.42C178.547 135.255 178.59 135.089 178.632 134.923C178.837 134.986 179.042 135.048 179.247 135.109L179.081 135.42H178.503ZM227.708 115.883C217.246 120.196 205.528 121.583 194.035 119.96C187.447 119.029 180.987 117.114 174.945 114.232C164.867 109.426 155.942 101.93 149.444 91.7572L133.152 98.8798C135.47 107.741 136.197 113.97 135.7 119.867C135.31 124.498 134.133 129.318 131.893 135.42H105.049C103.466 129.725 100.469 124.999 96.2962 121.491C90.302 116.451 82.7612 114.665 75.8198 115.187C65.0136 115.999 53.0942 123.031 49.8212 135.42H25.961C20.2072 124.698 18.0979 116.479 16.2301 100.847L9.20468 100.824C9.80267 93.1561 11.712 85.166 14.8582 77.1485C21.5616 60.0666 33.6435 43.5461 49.175 31.0434C64.6865 18.5568 83.3142 10.3275 103.078 9.21091C122.699 8.10235 144.101 13.9588 165.517 30.7501L169.591 33.9443L169.544 37.4506L172.456 36.1902L176.215 39.1378L177.614 33.9581L182.307 31.9273C187.576 29.6472 191.451 28.4565 194.604 28.0019C192.698 30.2733 191.147 32.8605 189.778 35.7034L187.509 40.4169L175.411 39.4201L183.256 54.0119C188.764 64.2568 191.46 71.766 192.302 79.3005C193.149 86.8904 192.204 95.2858 189.157 107.458L187.005 116.054L195.567 118.339C204.246 120.655 214.32 119.76 223.789 117.095C225.093 116.728 226.401 116.324 227.708 115.883Z" stroke="white" stroke-width="18"/>
</svg>
