<svg width="512" height="512" viewBox="0 0 512 512" fill="none" xmlns="http://www.w3.org/2000/svg">
<path d="M505.643 84.779L508 89.7547L402.351 227.806L488.242 190.244L491.93 194.989L308.084 430L302.632 428.849L286.275 363.986L251.384 386.548L248.464 385.441L216.675 271.226L216.892 269.691L248.233 218.923L237.717 181.995L161.145 317.179L210.757 294.5L213.092 297.452L112.296 426.379L108.913 425.75L86.8155 352.962L86.9449 351.518L110.752 305.095L80.6104 325.041L78.2707 324.201L5 84.1559L6.48331 82.1558H82.4677L83.951 83.253L131.161 237.998L219.572 83.1328L221.256 82.1558H277.856L279.714 83.5388L317.706 210.918L317.541 212.414L286.124 268.661L291.293 289.61L422.329 83.436L425.055 82L505.643 84.779ZM294.875 304.124L302.125 333.504L344.703 276.45L294.875 304.124Z" fill="white"/>
</svg>
