<svg width="175" height="40" viewBox="0 0 175 40" fill="none" xmlns="http://www.w3.org/2000/svg">
<circle cx="15.324" cy="15.5561" r="15.324" fill="#E53123"/>
<path d="M20.5598 30.8292H23.5872L26.9868 18.9431H27.1191L30.5104 30.8292H33.5378L38.3187 13.8892H35.0184L31.9662 26.3461H31.8173L28.5501 13.8892H25.5475L22.2886 26.3378H22.1314L19.0792 13.8892H15.7789L20.5598 30.8292Z" fill="#EEEEEE"/>
<path d="M46.0032 31.0774C49.7254 31.0774 52.091 28.4553 52.091 24.5264C52.091 20.5891 49.7254 17.9588 46.0032 17.9588C42.2811 17.9588 39.9154 20.5891 39.9154 24.5264C39.9154 28.4553 42.2811 31.0774 46.0032 31.0774ZM46.0198 28.6786C43.9602 28.6786 42.9511 26.8424 42.9511 24.5181C42.9511 22.1938 43.9602 20.3327 46.0198 20.3327C48.0463 20.3327 49.0554 22.1938 49.0554 24.5181C49.0554 26.8424 48.0463 28.6786 46.0198 28.6786ZM60.1743 31.0774C63.8965 31.0774 66.2621 28.4553 66.2621 24.5264C66.2621 20.5891 63.8965 17.9588 60.1743 17.9588C56.4522 17.9588 54.0865 20.5891 54.0865 24.5264C54.0865 28.4553 56.4522 31.0774 60.1743 31.0774ZM60.1909 28.6786C58.1313 28.6786 57.1222 26.8424 57.1222 24.5181C57.1222 22.1938 58.1313 20.3327 60.1909 20.3327C62.2174 20.3327 63.2265 22.1938 63.2265 24.5181C63.2265 26.8424 62.2174 28.6786 60.1909 28.6786ZM75.1478 18.1242H72.6415V15.0803H69.6472V18.1242H67.8441V20.4402H69.6472V27.5041C69.6307 29.8945 71.3677 31.0691 73.6176 31.0029C74.4695 30.9781 75.0568 30.8127 75.3794 30.7052L74.8748 28.3643C74.7094 28.4057 74.3703 28.4801 73.998 28.4801C73.2453 28.4801 72.6415 28.2154 72.6415 27.0078V20.4402H75.1478V18.1242ZM87.5116 21.4825C87.098 19.3319 85.3775 17.9588 82.3998 17.9588C79.3394 17.9588 77.2549 19.4642 77.2632 21.8133C77.2549 23.6661 78.3964 24.8903 80.8365 25.3949L83.0036 25.8498C84.1699 26.1062 84.7158 26.5777 84.7158 27.2973C84.7158 28.1658 83.7729 28.8193 82.3502 28.8193C80.9771 28.8193 80.0838 28.2237 79.8274 27.0822L76.9075 27.3635C77.2798 29.696 79.2401 31.0774 82.3584 31.0774C85.5347 31.0774 87.7763 29.4313 87.7845 27.0243C87.7763 25.2129 86.61 24.1045 84.2113 23.5834L82.0441 23.1202C80.7538 22.8307 80.2409 22.384 80.2492 21.6479C80.2409 20.7877 81.1922 20.1921 82.4412 20.1921C83.8225 20.1921 84.5504 20.9448 84.782 21.7802L87.5116 21.4825ZM90.3859 30.8292H93.3306V28.8275H93.5043C93.9757 29.7539 94.96 31.0526 97.1437 31.0526C100.138 31.0526 102.38 28.6786 102.38 24.4933C102.38 20.2583 100.072 17.9588 97.1354 17.9588C94.8939 17.9588 93.9592 19.3071 93.5043 20.2252H93.3802V13.8892H90.3859V30.8292ZM93.3223 24.4767C93.3223 22.0118 94.381 20.4154 96.3083 20.4154C98.3017 20.4154 99.3274 22.1111 99.3274 24.4767C99.3274 26.8589 98.2852 28.5959 96.3083 28.5959C94.3976 28.5959 93.3223 26.9416 93.3223 24.4767ZM110.467 31.0774C114.189 31.0774 116.555 28.4553 116.555 24.5264C116.555 20.5891 114.189 17.9588 110.467 17.9588C106.745 17.9588 104.379 20.5891 104.379 24.5264C104.379 28.4553 106.745 31.0774 110.467 31.0774ZM110.484 28.6786C108.424 28.6786 107.415 26.8424 107.415 24.5181C107.415 22.1938 108.424 20.3327 110.484 20.3327C112.51 20.3327 113.519 22.1938 113.519 24.5181C113.519 26.8424 112.51 28.6786 110.484 28.6786ZM125.44 18.1242H122.934V15.0803H119.94V18.1242H118.137V20.4402H119.94V27.5041C119.923 29.8945 121.66 31.0691 123.91 31.0029C124.762 30.9781 125.349 30.8127 125.672 30.7052L125.167 28.3643C125.002 28.4057 124.663 28.4801 124.291 28.4801C123.538 28.4801 122.934 28.2154 122.934 27.0078V20.4402H125.44V18.1242ZM129.789 31.0112C130.765 31.0112 131.601 30.2006 131.609 29.1915C131.601 28.1989 130.765 27.3883 129.789 27.3883C128.78 27.3883 127.961 28.1989 127.969 29.1915C127.961 30.2006 128.78 31.0112 129.789 31.0112ZM139.415 31.0526C141.599 31.0526 142.583 29.7539 143.055 28.8275H143.237V30.8292H146.181V13.8892H143.179V20.2252H143.055C142.6 19.3071 141.665 17.9588 139.423 17.9588C136.487 17.9588 134.179 20.2583 134.179 24.4933C134.179 28.6786 136.421 31.0526 139.415 31.0526ZM140.251 28.5959C138.274 28.5959 137.231 26.8589 137.231 24.4767C137.231 22.1111 138.257 20.4154 140.251 20.4154C142.178 20.4154 143.237 22.0118 143.237 24.4767C143.237 26.9416 142.161 28.5959 140.251 28.5959ZM154.996 31.0774C157.958 31.0774 159.992 29.6299 160.522 27.4214L157.726 27.1071C157.321 28.1824 156.328 28.7448 155.038 28.7448C153.102 28.7448 151.82 27.471 151.795 25.2956H160.646V24.3775C160.646 19.9191 157.966 17.9588 154.839 17.9588C151.2 17.9588 148.826 20.6305 148.826 24.5512C148.826 28.538 151.167 31.0774 154.996 31.0774ZM151.804 23.2774C151.895 21.6562 153.094 20.2914 154.881 20.2914C156.601 20.2914 157.759 21.5486 157.776 23.2774H151.804ZM174.391 18.1242H171.207L168.278 27.562H168.146L165.226 18.1242H162.033L166.558 30.8292H169.867L174.391 18.1242Z" fill="#EEEEEE"/>
</svg>
