<svg width="175" height="40" viewBox="0 0 175 40" fill="none" xmlns="http://www.w3.org/2000/svg">
<circle cx="15.324" cy="15.324" r="15.324" fill="#E53123" fill-opacity="0.7"/>
<path d="M20.5598 30.5972H23.5872L26.9868 18.7111H27.1191L30.5104 30.5972H33.5378L38.3187 13.6572H35.0184L31.9662 26.1141H31.8173L28.5501 13.6572H25.5475L22.2886 26.1058H22.1314L19.0793 13.6572H15.7789L20.5598 30.5972Z" fill="black"/>
<path d="M46.0033 30.8453C49.7255 30.8453 52.0911 28.2233 52.0911 24.2943C52.0911 20.3571 49.7255 17.7268 46.0033 17.7268C42.2812 17.7268 39.9155 20.3571 39.9155 24.2943C39.9155 28.2233 42.2812 30.8453 46.0033 30.8453ZM46.0199 28.4466C43.9603 28.4466 42.9512 26.6103 42.9512 24.2861C42.9512 21.9618 43.9603 20.1007 46.0199 20.1007C48.0464 20.1007 49.0555 21.9618 49.0555 24.2861C49.0555 26.6103 48.0464 28.4466 46.0199 28.4466ZM60.1744 30.8453C63.8966 30.8453 66.2622 28.2233 66.2622 24.2943C66.2622 20.3571 63.8966 17.7268 60.1744 17.7268C56.4523 17.7268 54.0866 20.3571 54.0866 24.2943C54.0866 28.2233 56.4523 30.8453 60.1744 30.8453ZM60.191 28.4466C58.1314 28.4466 57.1223 26.6103 57.1223 24.2861C57.1223 21.9618 58.1314 20.1007 60.191 20.1007C62.2175 20.1007 63.2266 21.9618 63.2266 24.2861C63.2266 26.6103 62.2175 28.4466 60.191 28.4466ZM75.1479 17.8922H72.6416V14.8483H69.6473V17.8922H67.8441V20.2082H69.6473V27.2721C69.6308 29.6625 71.3678 30.8371 73.6176 30.7709C74.4696 30.7461 75.0569 30.5807 75.3795 30.4731L74.8749 28.1323C74.7095 28.1737 74.3703 28.2481 73.9981 28.2481C73.2454 28.2481 72.6416 27.9834 72.6416 26.7758V20.2082H75.1479V17.8922ZM87.5116 21.2504C87.0981 19.0999 85.3776 17.7268 82.3999 17.7268C79.3394 17.7268 77.255 19.2322 77.2633 21.5813C77.255 23.4341 78.3965 24.6583 80.8366 25.1628L83.0037 25.6178C84.17 25.8742 84.7159 26.3457 84.7159 27.0653C84.7159 27.9338 83.7729 28.5872 82.3502 28.5872C80.9772 28.5872 80.0839 27.9917 79.8274 26.8502L76.9076 27.1315C77.2798 29.464 79.2402 30.8453 82.3585 30.8453C85.5348 30.8453 87.7763 29.1993 87.7846 26.7923C87.7763 24.9809 86.6101 23.8725 84.2113 23.3514L82.0442 22.8882C80.7538 22.5987 80.241 22.152 80.2493 21.4159C80.241 20.5556 81.1922 19.9601 82.4412 19.9601C83.8226 19.9601 84.5505 20.7128 84.7821 21.5482L87.5116 21.2504ZM90.386 30.5972H93.3306V28.5955H93.5043C93.9758 29.5219 94.9601 30.8205 97.1438 30.8205C100.138 30.8205 102.38 28.4466 102.38 24.2613C102.38 20.0263 100.072 17.7268 97.1355 17.7268C94.8939 17.7268 93.9593 19.075 93.5043 19.9932H93.3803V13.6572H90.386V30.5972ZM93.3224 24.2447C93.3224 21.7798 94.3811 20.1834 96.3084 20.1834C98.3018 20.1834 99.3274 21.8791 99.3274 24.2447C99.3274 26.6269 98.2852 28.3639 96.3084 28.3639C94.3976 28.3639 93.3224 26.7096 93.3224 24.2447ZM110.467 30.8453C114.189 30.8453 116.555 28.2233 116.555 24.2943C116.555 20.3571 114.189 17.7268 110.467 17.7268C106.745 17.7268 104.379 20.3571 104.379 24.2943C104.379 28.2233 106.745 30.8453 110.467 30.8453ZM110.484 28.4466C108.424 28.4466 107.415 26.6103 107.415 24.2861C107.415 21.9618 108.424 20.1007 110.484 20.1007C112.51 20.1007 113.519 21.9618 113.519 24.2861C113.519 26.6103 112.51 28.4466 110.484 28.4466ZM125.44 17.8922H122.934V14.8483H119.94V17.8922H118.137V20.2082H119.94V27.2721C119.923 29.6625 121.66 30.8371 123.91 30.7709C124.762 30.7461 125.349 30.5807 125.672 30.4731L125.168 28.1323C125.002 28.1737 124.663 28.2481 124.291 28.2481C123.538 28.2481 122.934 27.9834 122.934 26.7758V20.2082H125.44V17.8922ZM129.789 30.7792C130.765 30.7792 131.601 29.9686 131.609 28.9594C131.601 27.9669 130.765 27.1563 129.789 27.1563C128.78 27.1563 127.961 27.9669 127.969 28.9594C127.961 29.9686 128.78 30.7792 129.789 30.7792ZM139.415 30.8205C141.599 30.8205 142.583 29.5219 143.055 28.5955H143.237V30.5972H146.181V13.6572H143.179V19.9932H143.055C142.6 19.075 141.665 17.7268 139.423 17.7268C136.487 17.7268 134.179 20.0263 134.179 24.2613C134.179 28.4466 136.421 30.8205 139.415 30.8205ZM140.251 28.3639C138.274 28.3639 137.231 26.6269 137.231 24.2447C137.231 21.8791 138.257 20.1834 140.251 20.1834C142.178 20.1834 143.237 21.7798 143.237 24.2447C143.237 26.7096 142.161 28.3639 140.251 28.3639ZM154.997 30.8453C157.958 30.8453 159.992 29.3978 160.522 27.1894L157.726 26.875C157.321 27.9503 156.328 28.5128 155.038 28.5128C153.102 28.5128 151.82 27.239 151.795 25.0636H160.646V24.1454C160.646 19.6871 157.966 17.7268 154.839 17.7268C151.2 17.7268 148.826 20.3985 148.826 24.3192C148.826 28.306 151.167 30.8453 154.997 30.8453ZM151.804 23.0453C151.895 21.4241 153.094 20.0593 154.881 20.0593C156.601 20.0593 157.759 21.3166 157.776 23.0453H151.804ZM174.391 17.8922H171.207L168.278 27.33H168.146L165.226 17.8922H162.033L166.558 30.5972H169.867L174.391 17.8922Z" fill="black"/>
</svg>
